<?xml version="1.0" encoding="utf-8"?>
<!-- Generator: Adobe Illustrator 16.0.4, SVG Export Plug-In . SVG Version: 6.00 Build 0)  -->
<!DOCTYPE svg PUBLIC "-//W3C//DTD SVG 1.1//EN" "http://www.w3.org/Graphics/SVG/1.1/DTD/svg11.dtd">
<svg version="1.1" id="Layer_1" xmlns="http://www.w3.org/2000/svg" xmlns:xlink="http://www.w3.org/1999/xlink" x="0px" y="0px"
	 width="40.562px" height="31.168px" viewBox="0 0 40.562 31.168" enable-background="new 0 0 40.562 31.168" xml:space="preserve">
<g>
	<g>
		<path fill="#FFFFFF" d="M40.562,8.755c0,0.256,0,0.511,0,0.766c-0.033,0.031-0.073,0.057-0.101,0.092
			c-0.577,0.814-1.238,1.46-2.36,1.303c-0.148-0.021-0.343,0.066-0.474,0.162c-0.68,0.492-1.421,0.767-2.271,0.742
			c-0.269-0.008-0.559,0.017-0.799,0.117c-0.434,0.182-0.981,0.227-1.177,0.775c0.46,0.433,0.729,1.193,0.438,1.668
			c-0.161,0.26-0.623,0.405-0.97,0.455c-0.225,0.029-0.484-0.211-0.648-0.291c-0.203,0.483-0.35,1.157-0.729,1.651
			c-0.485,0.632-1.161,1.117-1.751,1.668c-0.115,0.107-0.216,0.234-0.319,0.353c-0.315,0.358-0.616,0.729-0.948,1.07
			c-0.494,0.508-0.971,1.012-0.951,1.794c0.01,0.316-0.036,0.635-0.048,0.952c-0.021,0.536,0.011,1.065-0.312,1.561
			c-0.154,0.232-0.23,0.574-0.208,0.855c0.061,0.776,0.18,1.549,0.303,2.315c0.026,0.17,0.128,0.393,0.264,0.469
			c0.444,0.25,0.473,0.675,0.589,1.16c-0.551,0.06-1.1,0.246-1.573,0.131c-0.404-0.099-0.889-0.483-1.033-0.86
			c-0.179-0.465-0.064-1.052-0.041-1.583c0.021-0.489,0.154-0.98,0.117-1.462c-0.055-0.691-0.242-1.372-0.33-2.062
			c-0.097-0.75-0.158-1.506-0.203-2.26c-0.029-0.464-0.232-0.648-0.703-0.577c-0.01,0.119-0.027,0.229-0.029,0.337
			c-0.006,0.717-0.121,1.391-0.629,1.953c-0.504,0.562-0.662,1.25-0.635,1.993c0.012,0.287,0.018,0.581-0.036,0.86
			c-0.086,0.463,0.081,0.834,0.321,1.201c0.062,0.098,0.147,0.254,0.11,0.322c-0.042,0.082-0.209,0.137-0.321,0.135
			c-0.446-0.006-0.896-0.008-1.337-0.064c-0.641-0.083-0.807-0.482-0.452-1.001c0.025-0.037,0.031-0.088,0.053-0.157
			c-0.346-0.24-0.459-0.49,0.012-0.73c0.061-0.029,0.099-0.121,0.128-0.192c0.696-1.622,0.521-3.333,0.547-5.037
			c-0.203-0.034-0.375-0.062-0.546-0.095c-0.479-0.096-0.872-0.028-1.338,0.251c-0.795,0.479-1.557,1.089-2.643,0.938
			c-1.012-0.14-2.056-0.111-3.084-0.076c-0.865,0.026-1.627-0.182-2.359-0.627c-0.276-0.17-0.633-0.209-0.854-0.277
			c-0.195,0.341-0.271,0.666-0.459,0.766c-0.615,0.323-0.828,0.793-0.729,1.449c0.002,0.016,0.004,0.035-0.003,0.048
			c-0.073,0.121-0.148,0.241-0.224,0.362c-0.078-0.104-0.187-0.196-0.23-0.312c-0.065-0.164-0.088-0.348-0.108-0.438
			c-0.226,0.116-0.414,0.215-0.648,0.337c-0.016,0.148-0.026,0.387-0.067,0.62c-0.019,0.097-0.103,0.181-0.154,0.271
			c-0.101-0.065-0.238-0.109-0.291-0.199c-0.145-0.244-0.25-0.51-0.432-0.896c-0.023,0.417-0.065,0.71-0.05,0.999
			c0.031,0.557,0.093,1.111,0.15,1.666c0.124,1.188,0.602,2.219,1.354,3.137c0.286,0.35,0.543,0.723,0.819,1.092
			c-0.605,0.483-1.167,0.795-1.892,0.729c-0.72-0.063-1.224-0.685-1.084-1.388c0.023-0.122,0.061-0.258,0.032-0.372
			c-0.258-1.107-0.744-2.115-1.42-3.083c-0.2,0.757-0.362,1.513-0.447,2.277c-0.155,1.422-0.133,2.83,0.587,4.133
			c0.15,0.273,0.051,0.443-0.238,0.468c-0.506,0.037-1.016,0.06-1.521,0.05c-0.134-0.003-0.325-0.113-0.386-0.23
			c-0.218-0.412-0.396-0.847-0.575-1.277c-0.033-0.08-0.001-0.19,0.021-0.281c0.088-0.402,0.248-0.802,0.264-1.206
			c0.031-0.979,0.022-1.967-0.017-2.948c-0.028-0.728-0.071-1.464-0.217-2.173c-0.11-0.534,0.048-0.921,0.271-1.379
			c0.291-0.604,0.521-1.265,0.623-1.925c0.125-0.827-0.154-1.63-0.394-2.428c-0.33-1.103-0.88-2.14-0.957-3.319
			c-0.024-0.379-0.182-0.75-0.276-1.125c-0.227,1.232-0.392,2.459-0.461,3.69c-0.054,0.933,0.033,1.871,0.02,2.808
			c-0.008,0.647-0.08,1.293-0.124,1.94c-0.021,0.299-0.042,0.598-0.06,0.896c-0.017,0.295-0.039,0.591-0.039,0.886
			c0,0.938-0.274,1.586-1.205,1.696C0.264,24.841,0.027,24.674,0,24.238c-0.013-0.215-0.098-0.424-0.149-0.637
			c0-0.16,0-0.318,0-0.479c0.305-0.803,0.33-1.631,0.26-2.477c-0.023-0.293,0.027-0.603,0.092-0.894
			c0.121-0.549,0.295-1.088,0.416-1.638c0.131-0.604,0.229-1.213,0.338-1.82c0.146-0.825,0.326-1.647,0.422-2.48
			c0.16-1.377,0.152-2.781,0.423-4.134c0.311-1.557,1.098-2.929,2.4-3.898C4.695,5.417,5.27,5.104,5.972,5.22
			c1.601,0.264,3.201,0.525,4.812,0.728c1.531,0.191,3.072,0.311,4.611,0.444c0.555,0.048,1.127,0.132,1.668,0.052
			c1.795-0.266,3.605-0.489,5.358-0.934c1.74-0.441,3.457-0.85,5.267-0.81c0.367,0.009,0.733-0.185,1.108-0.222
			c0.89-0.086,1.781-0.541,2.677,0.004c0.071,0.043,0.219-0.004,0.315-0.044c0.273-0.113,0.541-0.245,0.885-0.403
			c-0.118-0.308-0.201-0.633-0.366-0.912c-0.173-0.289-0.423-0.533-0.662-0.824c0.627-0.08,0.859,0.031,1.533,0.777
			c0.233,0.261,0.375,0.248,0.597-0.019c0.458-0.55,0.993-0.976,1.788-0.833c0.102,0.02,0.26,0.01,0.315-0.055
			c0.374-0.416,0.755-0.832,1.076-1.289c0.18-0.254,0.248-0.584,0.367-0.88c0.069,0.005,0.139,0.009,0.207,0.014
			c0.049,0.329,0.146,0.66,0.135,0.985c-0.03,0.852-0.348,1.568-1.143,2.059c0.199,0.049,0.354,0.029,0.502-0.01
			c0.205-0.057,0.415-0.203,0.606-0.179c0.748,0.093,1.013,0.638,0.719,1.37c-0.073,0.183-0.145,0.391-0.132,0.58
			c0.023,0.346,0.088,0.695,0.18,1.031c0.065,0.232,0.174,0.472,0.324,0.66C39.322,7.269,39.945,8.009,40.562,8.755z"/>
	</g>
</g>
</svg>
