<?xml version="1.0" encoding="utf-8"?>
<!-- Generator: Adobe Illustrator 16.0.4, SVG Export Plug-In . SVG Version: 6.00 Build 0)  -->
<!DOCTYPE svg PUBLIC "-//W3C//DTD SVG 1.1//EN" "http://www.w3.org/Graphics/SVG/1.1/DTD/svg11.dtd">
<svg version="1.1" id="Layer_1" xmlns="http://www.w3.org/2000/svg" xmlns:xlink="http://www.w3.org/1999/xlink" x="0px" y="0px"
	 width="173.683px" height="41.372px" viewBox="0 0 173.683 41.372" enable-background="new 0 0 173.683 41.372"
	 xml:space="preserve">
<g>
	<path fill="#D95527" d="M26.779,34.783c-1.374,2.52-5.398,5.138-7.17,5.718s-3.612,0.871-5.522,0.871
		c-3.996,0-7.343-1.285-10.04-3.854C1.349,34.949,0,31.755,0,27.936c0-3.78,1.353-6.95,4.061-9.508
		c2.706-2.56,6.068-3.839,10.084-3.839c1.93,0,3.819,0.286,5.67,0.856c1.851,0.571,3.648,1.588,4.339,2.348
		c1.125,1.144,1.937,2.564,1.937,2.564l-7.282,4.567c-0.53-0.866-1.097-1.487-1.697-1.86c-0.601-0.374-1.323-0.562-2.169-0.562
		c-1.438,0-2.545,0.474-3.322,1.417c-0.779,0.946-1.166,2.284-1.166,4.017c0,1.732,0.398,3.076,1.196,4.031
		c0.796,0.956,1.914,1.432,3.351,1.432c0.906,0,1.684-0.207,2.333-0.62c0.65-0.413,1.142-1.014,1.476-1.801L26.779,34.783z"/>
	<path fill="#D95527" d="M55.065,40.278H44.552v-1.948c0-0.099,0.02-0.375,0.059-0.827c0.039-0.454,0.058-0.778,0.058-0.976
		c-0.216,0.454-0.453,0.882-0.708,1.285c-0.256,0.403-0.502,0.723-0.738,0.96c-0.788,0.807-1.757,1.432-2.908,1.875
		s-2.397,0.665-3.736,0.665c-2.795,0-4.945-0.837-6.452-2.51c-1.506-1.673-2.259-4.065-2.259-7.175V15.798H38.38v12.255
		c0,1.674,0.231,2.82,0.695,3.441c0.461,0.619,1.264,0.93,2.405,0.93c0.513,0,0.975-0.093,1.388-0.281
		c0.415-0.187,0.758-0.458,1.034-0.812c0.296-0.394,0.479-0.758,0.547-1.092c0.067-0.334,0.104-1.241,0.104-2.717V15.798h10.513
		V40.278z"/>
	<path fill="#D95527" d="M90.009,39.925l-0.236,0.118c-0.531,0.236-1.398,0.458-2.599,0.665c-1.201,0.207-2.334,0.31-3.396,0.31
		c-1.733,0-3.19-0.202-4.372-0.604c-1.18-0.404-2.185-1.029-3.011-1.876c-0.571-0.609-0.985-1.353-1.24-2.229
		c-0.257-0.876-0.385-2.033-0.385-3.47v-8.77h-4.164l1.447-8.328h2.776v-7.56L85.343,6.91c-0.041,0.235-0.07,0.468-0.088,0.693
		c-0.021,0.228-0.031,0.578-0.031,1.049v7.088h4.785v8.328h-4.842v5.698c0,1.122,0.122,1.865,0.369,2.23
		c0.246,0.364,0.771,0.546,1.579,0.546c0.276,0,0.566-0.054,0.871-0.162c0.305-0.108,0.714-0.32,1.226-0.636l0.798-0.472V39.925z"/>
	<path fill="#D95527" d="M120.334,40.278h-10.512v-1.948c0-0.099,0.019-0.375,0.059-0.827c0.039-0.454,0.059-0.778,0.059-0.976
		c-0.217,0.454-0.453,0.882-0.708,1.285c-0.257,0.403-0.503,0.723-0.74,0.96c-0.786,0.807-1.756,1.432-2.908,1.875
		c-1.152,0.443-2.396,0.665-3.735,0.665c-2.796,0-4.947-0.837-6.452-2.51c-1.506-1.673-2.26-4.065-2.26-7.175V15.798h10.513v12.255
		c0,1.674,0.231,2.82,0.695,3.441c0.462,0.619,1.264,0.93,2.406,0.93c0.511,0,0.976-0.093,1.39-0.281
		c0.413-0.187,0.756-0.458,1.03-0.812c0.298-0.394,0.479-0.758,0.549-1.092c0.067-0.334,0.103-1.241,0.103-2.717V15.798h10.512
		V40.278z"/>
	<path fill="#D95527" d="M143.167,24.628l-0.326-0.148c-0.335-0.118-0.762-0.227-1.286-0.325c-0.519-0.098-1.018-0.147-1.489-0.147
		c-0.906,0-1.714,0.128-2.423,0.383c-0.708,0.257-1.369,0.651-1.979,1.182c-0.647,0.59-1.096,1.211-1.341,1.86
		c-0.249,0.649-0.373,1.526-0.373,2.629v10.216h-10.509V15.917h10.509v3.484c1.32-1.594,2.649-2.706,3.989-3.336
		c1.337-0.63,3.011-0.944,5.02-0.944h0.208V24.628z"/>
	<path fill="#D95527" d="M173.683,30.357h-18.367c0.019,1.358,0.443,2.437,1.27,3.233c0.828,0.797,1.93,1.196,3.306,1.196
		c1.045,0,1.93-0.227,2.66-0.679c0.727-0.454,1.377-1.181,1.949-2.185l7.736,3.514c-1.339,1.949-3.126,3.425-5.36,4.43
		c-2.233,1.004-4.839,1.505-7.809,1.505c-4.351,0-7.841-1.21-10.47-3.631c-2.63-2.422-3.941-5.651-3.941-9.687
		c0-4.075,1.325-7.318,3.986-9.729c2.656-2.412,6.21-3.618,10.658-3.618c2.225,0,4.229,0.306,6.011,0.916
		c1.78,0.61,3.263,1.516,4.444,2.716c1.3,1.299,2.278,2.943,2.937,4.932C173.353,25.259,173.683,27.62,173.683,30.357z
		 M163.021,25.042c-0.176-1.359-0.599-2.373-1.27-3.042c-0.667-0.67-1.565-1.004-2.685-1.004c-1.184,0-2.09,0.345-2.719,1.034
		c-0.631,0.689-0.976,1.693-1.033,3.012H163.021z"/>
	<g>
		<polygon fill="#D95527" points="58.166,1.269 58.166,40.278 68.649,40.278 68.649,0 		"/>
	</g>
</g>
</svg>
