<?xml version="1.0" encoding="utf-8"?>
<!-- Generator: Adobe Illustrator 16.0.4, SVG Export Plug-In . SVG Version: 6.00 Build 0)  -->
<!DOCTYPE svg PUBLIC "-//W3C//DTD SVG 1.1//EN" "http://www.w3.org/Graphics/SVG/1.1/DTD/svg11.dtd">
<svg version="1.1" id="Layer_1" xmlns="http://www.w3.org/2000/svg" xmlns:xlink="http://www.w3.org/1999/xlink" x="0px" y="0px"
	 width="35.734px" height="35.596px" viewBox="0 0 35.734 35.596" enable-background="new 0 0 35.734 35.596" xml:space="preserve">
<path fill="#989898" d="M15.249,28.482c0,2.619-1.619,4.688-6.203,4.856c-2.687-1.528-4.938-3.732-6.523-6.383
	c0.827-2.041,3.409-3.595,6.362-3.562c0.839,0.01,1.62,0.145,2.329,0.372c1.95,1.358,3.525,2.204,3.92,3.751
	c0.074,0.312,0.115,0.635,0.115,0.963V28.482z M17.866-0.069c-5.162,0-9.812,2.19-13.074,5.691C6.08,4.908,7.603,4.483,9.221,4.483
	c2.34,0,8.949,0,8.949,0l-2,2.098h-2.349c1.657,0.95,2.54,2.904,2.54,5.062c0,1.978-1.098,3.572-2.645,4.782
	c-1.511,1.18-1.797,1.674-1.797,2.678c0,0.856,1.805,2.133,2.635,2.755c2.89,2.168,3.475,3.531,3.475,6.243
	c0,2.746-2.405,5.482-6.486,6.411c1.968,0.746,4.099,1.153,6.325,1.153c9.869,0,17.867-7.998,17.867-17.867
	c0-9.867-7.998-17.867-17.867-17.867H17.866z M26.8,13.331v4.467h-2.232v-4.467h-4.467v-2.234h4.467V6.63H26.8v4.467h4.467v2.234
	H26.8z M12.763,11.775c0.417,3.169-0.971,5.206-3.384,5.136c-2.41-0.073-4.703-2.286-5.12-5.453C3.843,8.29,5.461,5.864,7.872,5.937
	S12.347,8.608,12.763,11.775L12.763,11.775z M7.707,22.336c-2.606,0-4.819,0.899-6.38,2.229c-0.855-2.088-1.328-4.371-1.328-6.768
	c0-1.98,0.323-3.885,0.918-5.667c0.257,3.472,2.699,6.148,6.733,6.148c0.297,0,0.586-0.015,0.868-0.034
	c-0.277,0.53-0.476,1.123-0.476,1.743c0,1.046,0.575,1.645,1.287,2.333c-0.538,0-1.057,0.015-1.625,0.015H7.707z"/>
</svg>
