<?xml version="1.0" encoding="utf-8"?>
<!-- Generator: Adobe Illustrator 16.0.4, SVG Export Plug-In . SVG Version: 6.00 Build 0)  -->
<!DOCTYPE svg PUBLIC "-//W3C//DTD SVG 1.1//EN" "http://www.w3.org/Graphics/SVG/1.1/DTD/svg11.dtd">
<svg version="1.1" id="Layer_1" xmlns="http://www.w3.org/2000/svg" xmlns:xlink="http://www.w3.org/1999/xlink" x="0px" y="0px"
	 width="35.734px" height="35.596px" viewBox="0 0 35.734 35.596" enable-background="new 0 0 35.734 35.596" xml:space="preserve">
<path fill="#989898" d="M29.801-0.07H5.932C2.669-0.07,0,2.6,0,5.862v23.87c0,3.263,2.669,5.934,5.932,5.934h23.869
	c3.264,0,5.934-2.671,5.934-5.934V5.862C35.734,2.6,33.064-0.07,29.801-0.07z M11.439,15.564h12.855
	c0.244,0.7,0.377,1.451,0.377,2.233c0,3.751-3.054,6.805-6.805,6.805c-3.752,0-6.807-3.054-6.807-6.805
	C11.061,17.015,11.195,16.264,11.439,15.564z M31.268,15.566v13.398c0,1.228-1.006,2.233-2.234,2.233H6.699
	c-1.228,0-2.232-1.006-2.232-2.233v-13.4h3.492c-0.162,0.72-0.247,1.466-0.247,2.233c0,5.599,4.554,10.154,10.155,10.154
	c5.598,0,10.154-4.554,10.154-10.154c0-0.768-0.085-1.514-0.247-2.233L31.268,15.566z M31.268,7.747
	c0,0.614-0.504,1.117-1.117,1.117h-2.233c-0.614,0-1.116-0.503-1.116-1.117V5.514c0-0.615,0.502-1.117,1.116-1.117h2.233
	c0.613,0,1.117,0.502,1.117,1.117V7.747z"/>
</svg>
