<?xml version="1.0" encoding="utf-8"?>
<!-- Generator: Adobe Illustrator 16.0.4, SVG Export Plug-In . SVG Version: 6.00 Build 0)  -->
<!DOCTYPE svg PUBLIC "-//W3C//DTD SVG 1.1//EN" "http://www.w3.org/Graphics/SVG/1.1/DTD/svg11.dtd">
<svg version="1.1" id="Layer_1" xmlns="http://www.w3.org/2000/svg" xmlns:xlink="http://www.w3.org/1999/xlink" x="0px" y="0px"
	 width="263.565px" height="61.792px" viewBox="0 0 263.565 61.792" enable-background="new 0 0 263.565 61.792"
	 xml:space="preserve">
<g>
	<path fill="#D95527" d="M39.997,51.951c-2.052,3.764-8.063,7.674-10.709,8.541c-2.647,0.866-5.395,1.301-8.248,1.301
		c-5.969,0-10.968-1.919-14.996-5.756C2.015,52.2,0,47.429,0,41.725c0-5.646,2.021-10.38,6.064-14.202
		c4.042-3.824,9.064-5.735,15.062-5.735c2.882,0,5.705,0.427,8.469,1.28c2.765,0.853,5.449,2.372,6.481,3.506
		c1.681,1.709,2.893,3.83,2.893,3.83l-10.876,6.821c-0.792-1.293-1.638-2.22-2.535-2.778c-0.897-0.558-1.976-0.839-3.241-0.839
		c-2.147,0-3.801,0.707-4.962,2.116c-1.163,1.413-1.741,3.412-1.741,6c0,2.587,0.594,4.595,1.786,6.021
		c1.19,1.427,2.859,2.139,5.004,2.139c1.353,0,2.515-0.309,3.484-0.926c0.972-0.617,1.706-1.514,2.204-2.69L39.997,51.951z"/>
	<path fill="#D95527" d="M82.246,60.16H66.543V57.25c0-0.148,0.03-0.559,0.088-1.235c0.058-0.677,0.086-1.163,0.086-1.457
		c-0.323,0.677-0.677,1.317-1.058,1.919c-0.382,0.603-0.75,1.08-1.103,1.434c-1.176,1.205-2.624,2.139-4.344,2.8
		c-1.72,0.662-3.581,0.993-5.581,0.993c-4.175,0-7.386-1.25-9.636-3.75c-2.25-2.499-3.375-6.072-3.375-10.717V23.596h15.702V41.9
		c0,2.501,0.346,4.212,1.038,5.141c0.688,0.924,1.887,1.388,3.592,1.388c0.766,0,1.457-0.139,2.074-0.42
		c0.619-0.279,1.132-0.683,1.544-1.213c0.441-0.587,0.714-1.132,0.817-1.631c0.101-0.5,0.155-1.854,0.155-4.058V23.596h15.703V60.16
		z"/>
	<path fill="#D95527" d="M134.437,59.631l-0.353,0.176c-0.793,0.352-2.088,0.684-3.881,0.992c-1.794,0.309-3.486,0.462-5.072,0.462
		c-2.589,0-4.764-0.301-6.529-0.902c-1.762-0.603-3.263-1.536-4.498-2.802c-0.854-0.911-1.471-2.021-1.852-3.329
		c-0.383-1.308-0.575-3.037-0.575-5.183V35.948h-6.219l2.161-12.438h4.146V12.218l15.703-1.897
		c-0.061,0.352-0.104,0.699-0.132,1.035c-0.03,0.34-0.046,0.862-0.046,1.567v10.586h7.146v12.438h-7.232v8.511
		c0,1.676,0.182,2.786,0.551,3.331c0.367,0.544,1.152,0.816,2.358,0.816c0.413,0,0.846-0.081,1.301-0.243
		c0.456-0.162,1.067-0.478,1.831-0.949l1.192-0.705V59.631z"/>
	<path fill="#D95527" d="M179.73,60.16h-15.7V57.25c0-0.148,0.027-0.559,0.088-1.235c0.058-0.677,0.088-1.163,0.088-1.457
		c-0.324,0.677-0.677,1.317-1.057,1.919c-0.384,0.603-0.752,1.08-1.105,1.434c-1.175,1.205-2.623,2.139-4.344,2.8
		c-1.721,0.662-3.578,0.993-5.579,0.993c-4.177,0-7.389-1.25-9.637-3.75c-2.25-2.499-3.375-6.072-3.375-10.717V23.596h15.702V41.9
		c0,2.501,0.345,4.212,1.037,5.141c0.69,0.924,1.888,1.388,3.594,1.388c0.764,0,1.457-0.139,2.075-0.42
		c0.617-0.279,1.129-0.683,1.539-1.213c0.445-0.587,0.716-1.132,0.82-1.631c0.101-0.5,0.153-1.854,0.153-4.058V23.596h15.7V60.16z"
		/>
	<path fill="#D95527" d="M213.834,36.784l-0.487-0.221c-0.5-0.177-1.138-0.338-1.921-0.485c-0.774-0.146-1.521-0.22-2.224-0.22
		c-1.354,0-2.56,0.192-3.619,0.572c-1.057,0.384-2.044,0.972-2.955,1.765c-0.967,0.882-1.637,1.809-2.003,2.778
		c-0.371,0.97-0.557,2.279-0.557,3.926V60.16h-15.696V23.773h15.696v5.204c1.972-2.381,3.957-4.042,5.958-4.983
		c1.997-0.94,4.497-1.41,7.497-1.41h0.311V36.784z"/>
	<path fill="#D95527" d="M259.412,45.341h-27.434c0.028,2.029,0.662,3.639,1.896,4.829c1.236,1.191,2.882,1.787,4.938,1.787
		c1.561,0,2.882-0.338,3.973-1.015c1.086-0.677,2.057-1.764,2.911-3.263l11.556,5.248c-2,2.911-4.669,5.116-8.006,6.617
		c-3.337,1.5-7.229,2.249-11.664,2.249c-6.498,0-11.711-1.808-15.637-5.424c-3.928-3.617-5.888-8.441-5.888-14.469
		c0-6.086,1.98-10.931,5.955-14.532c3.967-3.602,9.274-5.404,15.918-5.404c3.323,0,6.317,0.457,8.979,1.368
		c2.659,0.912,4.873,2.264,6.638,4.058c1.941,1.94,3.403,4.396,4.387,7.366C258.919,37.727,259.412,41.253,259.412,45.341z
		 M243.488,37.402c-0.262-2.029-0.894-3.543-1.896-4.543c-0.996-1-2.337-1.5-4.01-1.5c-1.767,0-3.12,0.515-4.06,1.544
		c-0.943,1.03-1.457,2.53-1.544,4.499H243.488z"/>
	<g>
		<polygon fill="#D95527" points="86.876,1.896 86.876,60.16 102.534,60.16 102.534,0 		"/>
	</g>
</g>
<g>
	<path fill="#231F20" d="M169.188,13.479c-1.31,0-2.015-0.535-1.946-1.924l0.079-2.015l-0.797-0.137l0.034-1.116l0.797-0.262
		l0.022-1.207h1.696l-0.011,1.264h1.32l-0.034,1.377h-1.412l-0.057,1.901c-0.022,0.489,0.262,0.694,0.694,0.694
		c0.217,0,0.455-0.057,0.694-0.137l0.205,1.366C170.063,13.411,169.723,13.479,169.188,13.479z"/>
	<path fill="#231F20" d="M174.812,13.308v-3.13c0-0.637-0.285-0.842-0.729-0.842c-0.41,0-0.752,0.193-0.979,0.398v3.574h-1.753
		V5.784l1.753-0.216c0,0,0,3.085,0,3.176c0.467-0.535,1.093-0.899,1.787-0.899c1.048,0,1.674,0.694,1.674,1.821v3.643H174.812z"/>
	<path fill="#231F20" d="M179.221,11.077c0.057,0.706,0.546,1.115,1.399,1.115c0.581,0,1.195-0.205,1.73-0.512l0.171,1.355
		c-0.535,0.273-1.298,0.432-2.061,0.432c-1.798,0-2.959-1.001-2.959-2.766c0-1.73,1.184-2.857,2.868-2.857
		c1.503,0,2.322,0.899,2.322,2.22c0,0.285-0.046,0.706-0.114,0.934l-3.357,0.057V11.077z M181.064,10.167c0-0.023,0-0.08,0-0.103
		c0-0.626-0.262-1.013-0.808-1.013c-0.604,0-0.968,0.523-1.025,1.127L181.064,10.167z"/>
	<path fill="#231F20" d="M186.656,13.331l-1.491-5.316h1.776l0.717,3.517l0.899-3.517h1.832l0.911,3.46l0.614-3.46h1.821
		l-1.502,5.316h-1.776l-1.013-3.483l-1.013,3.483H186.656z"/>
	<path fill="#231F20" d="M196.915,13.479c-1.594,0-2.812-1.002-2.812-2.8c0-1.799,1.274-2.834,2.88-2.834c1.594,0,2.8,1.024,2.8,2.8
		S198.497,13.479,196.915,13.479z M196.938,9.176c-0.717,0-1.093,0.581-1.093,1.491c0,0.899,0.387,1.469,1.104,1.469
		c0.717,0,1.093-0.569,1.093-1.48C198.042,9.768,197.654,9.176,196.938,9.176z"/>
	<path fill="#231F20" d="M202.507,13.308h-1.753V8.106l1.753-0.216v0.774c0.308-0.535,0.717-0.82,1.275-0.82
		c0.284,0,0.592,0.068,0.876,0.216l-0.353,1.548c-0.205-0.102-0.433-0.159-0.66-0.159c-0.433,0-0.819,0.216-1.139,0.774V13.308z"/>
	<path fill="#231F20" d="M208.679,5.784l1.753-0.216v7.741h-1.753c0,0,0-0.489,0-0.546c-0.33,0.341-0.819,0.706-1.479,0.706
		c-1.31,0-2.266-1.07-2.266-2.743c0-1.753,1.229-2.869,2.652-2.869c0.388,0,0.763,0.068,1.093,0.182V5.784z M207.871,9.153
		c-0.74,0-1.185,0.604-1.185,1.48c0,0.899,0.456,1.434,1.104,1.434c0.387,0,0.66-0.137,0.888-0.364c0,0.023,0-2.322,0-2.322
		C208.485,9.244,208.201,9.153,207.871,9.153z"/>
	<path fill="#231F20" d="M216.207,13.479c-1.594,0-2.812-1.002-2.812-2.8c0-1.799,1.274-2.834,2.88-2.834c1.594,0,2.8,1.024,2.8,2.8
		S217.789,13.479,216.207,13.479z M216.229,9.176c-0.717,0-1.093,0.581-1.093,1.491c0,0.899,0.387,1.469,1.104,1.469
		c0.717,0,1.093-0.569,1.093-1.48C217.334,9.768,216.946,9.176,216.229,9.176z"/>
	<path fill="#231F20" d="M223.506,13.308v-3.13c0-0.637-0.285-0.842-0.752-0.842c-0.387,0-0.729,0.193-0.956,0.398v3.574h-1.753
		V8.106l1.753-0.216c0,0,0,0.786,0,0.865c0.467-0.535,1.093-0.911,1.776-0.911c1.059,0,1.685,0.694,1.685,1.821v3.643H223.506z"/>
	<path fill="#231F20" d="M231.057,13.479c-1.753,0-2.869-0.979-2.869-2.778c0-1.753,1.139-2.857,2.914-2.857
		c0.74,0,1.446,0.171,1.924,0.444l-0.341,1.32c-0.422-0.239-0.934-0.41-1.4-0.41c-0.843,0-1.31,0.592-1.31,1.446
		c0,0.945,0.535,1.468,1.354,1.468c0.535,0,0.991-0.148,1.4-0.398l0.262,1.332C232.548,13.319,231.819,13.479,231.057,13.479z"/>
	<path fill="#231F20" d="M237.434,13.308v-3.13c0-0.637-0.285-0.842-0.729-0.842c-0.41,0-0.752,0.193-0.979,0.398v3.574h-1.753
		V5.784l1.753-0.216c0,0,0,3.085,0,3.176c0.467-0.535,1.093-0.899,1.787-0.899c1.048,0,1.674,0.694,1.674,1.821v3.643H237.434z"/>
	<path fill="#231F20" d="M241.843,11.077c0.057,0.706,0.546,1.115,1.4,1.115c0.58,0,1.194-0.205,1.729-0.512l0.171,1.355
		c-0.535,0.273-1.298,0.432-2.061,0.432c-1.798,0-2.959-1.001-2.959-2.766c0-1.73,1.184-2.857,2.868-2.857
		c1.503,0,2.322,0.899,2.322,2.22c0,0.285-0.046,0.706-0.114,0.934l-3.357,0.057V11.077z M243.687,10.167c0-0.023,0-0.08,0-0.103
		c0-0.626-0.262-1.013-0.809-1.013c-0.603,0-0.967,0.523-1.024,1.127L243.687,10.167z"/>
	<path fill="#231F20" d="M247.741,11.077c0.057,0.706,0.546,1.115,1.4,1.115c0.58,0,1.194-0.205,1.729-0.512l0.171,1.355
		c-0.535,0.273-1.298,0.432-2.061,0.432c-1.798,0-2.959-1.001-2.959-2.766c0-1.73,1.184-2.857,2.868-2.857
		c1.503,0,2.322,0.899,2.322,2.22c0,0.285-0.046,0.706-0.114,0.934l-3.357,0.057V11.077z M249.585,10.167c0-0.023,0-0.08,0-0.103
		c0-0.626-0.262-1.013-0.809-1.013c-0.603,0-0.967,0.523-1.024,1.127L249.585,10.167z"/>
	<path fill="#231F20" d="M254.095,13.479c-0.729,0-1.685-0.171-2.242-0.467l0.341-1.264c0.615,0.319,1.321,0.501,1.936,0.501
		c0.467,0,0.717-0.159,0.717-0.433c0-0.296-0.296-0.41-0.899-0.546c-1.229-0.239-2.015-0.694-2.015-1.73
		c0-0.991,0.865-1.696,2.334-1.696c0.706,0,1.628,0.205,2.151,0.456l-0.353,1.252c-0.604-0.296-1.321-0.478-1.821-0.478
		c-0.422,0-0.649,0.136-0.649,0.398c0,0.285,0.33,0.398,0.911,0.523c1.252,0.273,1.992,0.683,1.992,1.742
		C256.497,12.693,255.654,13.479,254.095,13.479z"/>
	<path fill="#231F20" d="M258.878,11.077c0.057,0.706,0.546,1.115,1.4,1.115c0.58,0,1.194-0.205,1.729-0.512l0.171,1.355
		c-0.535,0.273-1.298,0.432-2.061,0.432c-1.798,0-2.959-1.001-2.959-2.766c0-1.73,1.184-2.857,2.868-2.857
		c1.503,0,2.322,0.899,2.322,2.22c0,0.285-0.046,0.706-0.114,0.934l-3.357,0.057V11.077z M260.722,10.167c0-0.023,0-0.08,0-0.103
		c0-0.626-0.262-1.013-0.809-1.013c-0.603,0-0.967,0.523-1.024,1.127L260.722,10.167z"/>
</g>
</svg>
