<?xml version="1.0" encoding="utf-8"?>
<!-- Generator: Adobe Illustrator 16.0.4, SVG Export Plug-In . SVG Version: 6.00 Build 0)  -->
<!DOCTYPE svg PUBLIC "-//W3C//DTD SVG 1.1//EN" "http://www.w3.org/Graphics/SVG/1.1/DTD/svg11.dtd">
<svg version="1.1" id="Layer_1" xmlns="http://www.w3.org/2000/svg" xmlns:xlink="http://www.w3.org/1999/xlink" x="0px" y="0px"
	 width="61.473px" height="43.871px" viewBox="0 0 61.473 43.871" enable-background="new 0 0 61.473 43.871" xml:space="preserve">
<g>
	<g>
		<path fill="#D95527" d="M30.762,8.708c8.625,0,17.251,0.006,25.876-0.011c0.662-0.001,1.367-0.041,1.979-0.264
			c1.947-0.711,3.172-2.839,2.797-4.691c-0.486-2.395-2.172-3.733-4.82-3.735C39.343-0.002,22.091-0.002,4.84,0.008
			C2.007,0.009,0.001,1.865,0,4.409c0,2.507,2.025,4.298,4.885,4.299C13.51,8.711,22.135,8.709,30.762,8.708z M30.729,35.174
			c-8.678,0-17.355-0.006-26.034,0.002c-2.732,0.004-4.682,1.822-4.69,4.331c-0.008,2.468,1.991,4.365,4.71,4.366
			c17.304,0.012,34.61,0.009,51.913-0.003c2.852-0.002,4.881-1.843,4.846-4.379c-0.027-1.985-1.646-4.396-4.865-4.354
			C47.982,35.249,39.355,35.175,30.729,35.174z M30.736,17.625c0-0.002,0-0.005,0-0.008c-0.52,0-1.039,0-1.56,0
			c-8.218,0.001-16.436-0.008-24.653,0.01c-2.355,0.005-3.928,1.315-4.434,3.587c-0.408,1.831,0.639,3.913,2.57,4.651
			c0.93,0.354,2.025,0.376,3.045,0.377c16.955,0.023,33.912,0.012,50.867,0.035c1.426,0.001,2.697-0.274,3.668-1.357
			c1.207-1.346,1.605-2.916,0.879-4.613c-0.77-1.798-2.174-2.693-4.168-2.689C48.212,17.632,39.474,17.625,30.736,17.625z"/>
		<path fill-rule="evenodd" clip-rule="evenodd" fill="#D95527" d="M30.762,8.708c-8.627,0-17.252,0.002-25.877-0.001
			C2.025,8.707,0,6.916,0,4.409c0.001-2.543,2.007-4.399,4.84-4.401c17.251-0.01,34.503-0.01,51.753-0.001
			c2.648,0.002,4.334,1.34,4.82,3.735c0.375,1.852-0.85,3.979-2.797,4.691c-0.611,0.223-1.316,0.263-1.979,0.264
			C48.013,8.713,39.386,8.708,30.762,8.708z"/>
		<path fill-rule="evenodd" clip-rule="evenodd" fill="#D95527" d="M30.729,35.174c8.626,0.001,17.253,0.074,25.878-0.037
			c3.219-0.042,4.838,2.369,4.865,4.354c0.035,2.536-1.994,4.377-4.846,4.379c-17.303,0.012-34.609,0.015-51.913,0.003
			c-2.719-0.001-4.718-1.898-4.71-4.366c0.009-2.509,1.958-4.327,4.69-4.331C13.373,35.168,22.051,35.174,30.729,35.174z"/>
		<path fill-rule="evenodd" clip-rule="evenodd" fill="#D95527" d="M30.736,17.625c8.738,0,17.476,0.008,26.214-0.006
			c1.994-0.003,3.398,0.892,4.168,2.689c0.727,1.697,0.328,3.267-0.879,4.613c-0.971,1.083-2.242,1.358-3.668,1.357
			c-16.955-0.023-33.912-0.012-50.867-0.035c-1.02-0.001-2.115-0.023-3.045-0.377c-1.932-0.738-2.979-2.82-2.57-4.651
			c0.506-2.272,2.078-3.582,4.434-3.587c8.218-0.019,16.436-0.009,24.653-0.01c0.521,0,1.04,0,1.56,0
			C30.736,17.62,30.736,17.622,30.736,17.625z"/>
	</g>
</g>
</svg>
