<?xml version="1.0" encoding="utf-8"?>
<!-- Generator: Adobe Illustrator 16.0.4, SVG Export Plug-In . SVG Version: 6.00 Build 0)  -->
<!DOCTYPE svg PUBLIC "-//W3C//DTD SVG 1.1//EN" "http://www.w3.org/Graphics/SVG/1.1/DTD/svg11.dtd">
<svg version="1.1" id="Layer_1" xmlns="http://www.w3.org/2000/svg" xmlns:xlink="http://www.w3.org/1999/xlink" x="0px" y="0px"
	 width="35.734px" height="35.596px" viewBox="0 0 35.734 35.596" enable-background="new 0 0 35.734 35.596" xml:space="preserve">
<path fill="#989898" d="M17.867-0.069C7.999-0.069,0,7.93,0,17.798s7.999,17.867,17.867,17.867s17.867-7.999,17.867-17.867
	S27.735-0.069,17.867-0.069z M11.167,26.731c-1.234,0-2.233-0.999-2.233-2.233s0.999-2.233,2.233-2.233s2.233,0.999,2.233,2.233
	S12.401,26.731,11.167,26.731z M17.31,26.731c0-4.618-3.758-8.376-8.376-8.376v-3.35c6.466,0,11.726,5.26,11.726,11.726H17.31z
	 M24.009,26.731c0-4.026-1.568-7.812-4.415-10.66c-2.848-2.847-6.634-4.415-10.66-4.415V8.306c4.922,0,9.549,1.916,13.027,5.397
	c3.481,3.479,5.398,8.106,5.398,13.028H24.009z"/>
</svg>
