<?xml version="1.0" encoding="utf-8"?>
<!-- Generator: Adobe Illustrator 16.0.4, SVG Export Plug-In . SVG Version: 6.00 Build 0)  -->
<!DOCTYPE svg PUBLIC "-//W3C//DTD SVG 1.1//EN" "http://www.w3.org/Graphics/SVG/1.1/DTD/svg11.dtd">
<svg version="1.1" id="Layer_1" xmlns="http://www.w3.org/2000/svg" xmlns:xlink="http://www.w3.org/1999/xlink" x="0px" y="0px"
	 width="35.734px" height="35.596px" viewBox="0 0 35.734 35.596" enable-background="new 0 0 35.734 35.596" xml:space="preserve">
<path fill="#989898" d="M17.867-0.069C8-0.069,0,7.93,0,17.798s8,17.867,17.867,17.867c9.869,0,17.867-7.999,17.867-17.867
	S27.736-0.069,17.867-0.069z M28.135,12.531c0.012,0.227,0.017,0.455,0.017,0.687c0,7-5.328,15.073-15.074,15.073
	c-2.991,0-5.776-0.877-8.122-2.38c0.414,0.048,0.836,0.073,1.264,0.073c2.482,0,4.767-0.848,6.58-2.268
	c-2.318-0.043-4.275-1.574-4.949-3.68c0.322,0.062,0.656,0.094,0.997,0.094c0.484,0,0.951-0.064,1.396-0.185
	c-2.423-0.487-4.249-2.628-4.249-5.195c0-0.022,0-0.044,0-0.067c0.714,0.396,1.53,0.637,2.399,0.662
	c-1.422-0.949-2.357-2.57-2.357-4.41c0-0.969,0.262-1.879,0.717-2.662c2.613,3.205,6.516,5.314,10.92,5.535
	c-0.09-0.387-0.137-0.791-0.137-1.206c0-2.927,2.371-5.298,5.297-5.298c1.523,0,2.901,0.644,3.867,1.673
	c1.208-0.237,2.341-0.679,3.365-1.286c-0.395,1.238-1.237,2.276-2.33,2.932c1.072-0.129,2.093-0.413,3.043-0.834
	C30.067,10.852,29.17,11.785,28.135,12.531L28.135,12.531z"/>
</svg>
